<?xml version="1.0" encoding="UTF-8"?>
<svg version="1.1" xmlns="http://www.w3.org/2000/svg" width="512" height="512">
<path d="M0 0 C1.01790619 0.00215515 2.03581238 0.0043103 3.08456421 0.00653076 C17.69363523 0.05620146 32.02575853 0.30709809 46.375 3.3125 C47.34985352 3.51117676 48.32470703 3.70985352 49.32910156 3.91455078 C97.7109774 14.03517194 141.69928269 35.9516877 177.375 70.3125 C178.3640332 71.26068604 178.3640332 71.26068604 179.37304688 72.22802734 C188.86130305 81.37247479 197.6012044 90.66984009 205.375 101.3125 C206.23306152 102.46355017 207.09113451 103.61459177 207.94921875 104.765625 C213.98736829 112.95680614 219.34595521 121.47054105 224.375 130.3125 C224.73948242 130.94430176 225.10396484 131.57610352 225.47949219 132.22705078 C247.08534998 169.97532572 256.85198095 212.74189997 256.6875 255.9375 C256.68534485 256.95540619 256.6831897 257.97331238 256.68096924 259.02206421 C256.63129854 273.63113523 256.38040191 287.96325853 253.375 302.3125 C253.07698486 303.77478027 253.07698486 303.77478027 252.77294922 305.26660156 C242.65232806 353.6484774 220.7358123 397.63678269 186.375 433.3125 C185.74287598 433.97185547 185.11075195 434.63121094 184.45947266 435.31054688 C175.31502521 444.79880305 166.01765991 453.5387044 155.375 461.3125 C154.22394983 462.17056152 153.07290823 463.02863451 151.921875 463.88671875 C143.73224019 469.92427396 135.22961724 475.30707302 126.375 480.3125 C125.66778809 480.7146875 124.96057617 481.116875 124.23193359 481.53125 C101.09654164 494.5566741 75.92537591 503.30551461 49.9375 508.625 C49.21860596 508.77235596 48.49971191 508.91971191 47.7590332 509.0715332 C33.08339502 511.86090125 18.55831162 512.66142619 3.64770508 512.62817383 C0.70811513 512.6250221 -2.2304558 512.64854926 -5.16992188 512.67382812 C-18.54306192 512.71848737 -31.43916711 511.51301542 -44.625 509.3125 C-46.33055054 509.03031616 -46.33055054 509.03031616 -48.07055664 508.74243164 C-91.33802759 500.97044532 -132.38793216 480.98345309 -165.625 452.3125 C-166.37007813 451.67828125 -167.11515625 451.0440625 -167.8828125 450.390625 C-181.38779833 438.57948485 -194.05918743 425.82889772 -204.625 411.3125 C-205.48149066 410.16255169 -206.33826433 409.01281411 -207.1953125 407.86328125 C-213.23534209 399.67315742 -218.61867614 391.16870382 -223.625 382.3125 C-224.0271875 381.60528809 -224.429375 380.89807617 -224.84375 380.16943359 C-237.8691741 357.03404164 -246.61801461 331.86287591 -251.9375 305.875 C-252.08485596 305.15610596 -252.23221191 304.43721191 -252.3840332 303.6965332 C-255.35789088 288.05024391 -255.99800362 272.57681954 -255.9375 256.6875 C-255.93534485 255.66959381 -255.9331897 254.65168762 -255.93096924 253.60293579 C-255.88129854 238.99386477 -255.63040191 224.66174147 -252.625 210.3125 C-252.42632324 209.33764648 -252.22764648 208.36279297 -252.02294922 207.35839844 C-241.90232806 158.9765226 -219.9858123 114.98821731 -185.625 79.3125 C-184.99287598 78.65314453 -184.36075195 77.99378906 -183.70947266 77.31445312 C-174.56502521 67.82619695 -165.26765991 59.0862956 -154.625 51.3125 C-153.47394983 50.45443848 -152.32290823 49.59636549 -151.171875 48.73828125 C-142.98224019 42.70072604 -134.47961724 37.31792698 -125.625 32.3125 C-124.91778809 31.9103125 -124.21057617 31.508125 -123.48193359 31.09375 C-100.34654164 18.0683259 -75.17537591 9.31948539 -49.1875 4 C-48.46860596 3.85264404 -47.74971191 3.70528809 -47.0090332 3.5534668 C-31.36274391 0.57960912 -15.88931954 -0.06050362 0 0 Z " fill="#8D60F0" transform="translate(255.625,-0.3125)"/>
<path d="M0 0 C3.99059281 3.32549401 6.30656041 6.15449337 6.86328125 11.45703125 C7.03219012 17.2443826 6.74111223 20.76267935 2.625 25.1875 C1.26153189 25.78121356 -0.10314593 26.3721535 -1.46875 26.9609375 C-4.50968471 28.81794142 -5.25574853 29.70239533 -6.11914062 33.21459961 C-6.3889599 36.99644632 -6.43166533 40.7090895 -6.375 44.5 C-6.39240234 46.46936523 -6.39240234 46.46936523 -6.41015625 48.47851562 C-6.43370464 51.71641896 -6.42069309 54.94995427 -6.375 58.1875 C-5.68792969 58.15269531 -5.00085938 58.11789063 -4.29296875 58.08203125 C-3.39191406 58.05496094 -2.49085938 58.02789062 -1.5625 58 C-0.22251953 57.94779297 -0.22251953 57.94779297 1.14453125 57.89453125 C3.625 58.1875 3.625 58.1875 5.40356445 59.47583008 C7.4081597 62.28498804 7.47212379 65.53056954 7.8125 68.875 C7.9352832 69.9278418 7.9352832 69.9278418 8.06054688 71.00195312 C8.26029273 72.72916726 8.44419988 74.45820003 8.625 76.1875 C9.50542969 76.52523437 10.38585937 76.86296875 11.29296875 77.2109375 C12.45441406 77.65695313 13.61585938 78.10296875 14.8125 78.5625 C16.53533203 79.22378906 16.53533203 79.22378906 18.29296875 79.8984375 C21.625 81.1875 21.625 81.1875 24.1796875 82.62890625 C26.82584257 83.53552202 26.82584257 83.53552202 29.52734375 81.37890625 C30.55372604 80.5198256 31.56515653 79.64262879 32.5625 78.75 C37.69260168 74.16269618 37.69260168 74.16269618 41.85546875 74.2734375 C45.032945 75.32213911 46.49432451 76.64707922 48.625 79.1875 C53.43396408 77.0230346 56.70741047 73.58703361 60.4375 69.9375 C61.14326172 69.28136719 61.84902344 68.62523437 62.57617188 67.94921875 C64.46084121 66.10308696 66.14009639 64.36884756 67.625 62.1875 C67.76969201 58.98960878 67.76969201 58.98960878 66.625 56.1875 C65.89982196 50.15816262 66.51382605 45.93401867 70.078125 40.91796875 C73.05434682 37.58850849 76.1203838 35.60978994 80.640625 34.84765625 C86.27466359 34.5788567 89.97523425 36.10901402 94.328125 39.5234375 C98.09319556 43.13016398 99.06911613 46.04312872 99.25 51.25 C98.97884688 56.30101508 98.14339281 59.3838321 94.625 63.1875 C90.5357231 66.78995822 88.23265433 68.32875234 82.8125 68.3125 C81.96042969 68.31507813 81.10835937 68.31765625 80.23046875 68.3203125 C77.625 68.1875 77.625 68.1875 75.22509766 67.45288086 C72.55851787 66.89902131 72.55851787 66.89902131 70.49682617 68.63452148 C69.81080322 69.35196533 69.12478027 70.06940918 68.41796875 70.80859375 C67.66708984 71.57880859 66.91621094 72.34902344 66.14257812 73.14257812 C64.98918945 74.37137695 64.98918945 74.37137695 63.8125 75.625 C62.63010742 76.84799805 62.63010742 76.84799805 61.42382812 78.09570312 C59.47678691 80.11354584 57.54505649 82.14401809 55.625 84.1875 C56.70550154 86.45702506 57.65061939 88.21691486 59.3125 90.125 C60.625 92.1875 60.625 92.1875 60.43359375 94.5078125 C59.21196846 98.55629053 56.6404952 101.3262797 54.0234375 104.58984375 C52.19340564 107.98920461 52.66300226 109.49751832 53.625 113.1875 C53.83253906 114.28449219 54.04007813 115.38148438 54.25390625 116.51171875 C55.30702783 120.30560027 56.26839461 123.01083046 58.625 126.1875 C62.56021668 128.08022418 66.8059886 128.40939997 71.10546875 128.79296875 C74.625 129.1875 74.625 129.1875 76.625 131.1875 C76.625 134.4875 76.625 137.7875 76.625 141.1875 C86.195 141.1875 95.765 141.1875 105.625 141.1875 C105.955 139.5375 106.285 137.8875 106.625 136.1875 C109.11685311 132.44972034 111.43999694 129.87930975 115.625 128.1875 C121.45772971 127.27040413 126.19454761 127.34022207 131.125 130.8125 C135.37173745 134.52839527 137.33054894 137.91602041 138.0625 143.5625 C137.34242895 149.52880296 135.1954297 154.24505502 130.5625 158.1875 C125.88378983 161.12926412 120.94762257 161.27795133 115.625 160.1875 C111.00618078 157.86314276 107.55514988 155.06568975 105.625 150.1875 C105.625 149.1975 105.625 148.2075 105.625 147.1875 C96.055 147.1875 86.485 147.1875 76.625 147.1875 C76.625 150.4875 76.625 153.7875 76.625 157.1875 C72.35748759 160.38813431 70.5230723 160.75532463 65.375 161.375 C64.11171875 161.53355469 62.8484375 161.69210937 61.546875 161.85546875 C60.58265625 161.96503906 59.6184375 162.07460938 58.625 162.1875 C57.58834662 164.74457833 56.5706027 167.30668513 55.5625 169.875 C55.26794922 170.59623047 54.97339844 171.31746094 54.66992188 172.06054688 C52.52263151 177.53564401 52.52263151 177.53564401 53.625 183.1875 C55.27014974 185.48021532 55.27014974 185.48021532 57.25 187.625 C60.60123151 191.76759009 60.60123151 191.76759009 60.8125 195.5 C59.50841243 198.45135608 58.0856744 200.12370857 55.625 202.1875 C57.79115659 207.01354496 61.26572688 210.27222271 64.9375 214 C65.60201172 214.70576172 66.26652344 215.41152344 66.95117188 216.13867188 C67.60279297 216.80060547 68.25441406 217.46253906 68.92578125 218.14453125 C69.51528564 218.75272705 70.10479004 219.36092285 70.7121582 219.98754883 C72.61982955 221.46132659 72.61982955 221.46132659 75.22021484 220.89257812 C76.01379395 220.65990234 76.80737305 220.42722656 77.625 220.1875 C84.15374221 219.4725031 89.22621319 220.3120729 94.625 224.1875 C98.36907512 227.93157512 98.92212053 231.06479347 99.125 236.1875 C98.87656236 242.8787538 96.9393755 245.98884327 92.125 250.5625 C86.92319041 252.97762588 82.25035901 253.2919553 76.625 252.1875 C72.45587587 249.84072887 69.66335218 246.83155762 67.125 242.8125 C66.2433241 238.1837015 65.95781493 233.34225574 67.36181641 228.80786133 C67.91465964 226.12369638 67.91465964 226.12369638 66.17797852 224.05932617 C65.46053467 223.37330322 64.74309082 222.68728027 64.00390625 221.98046875 C63.23369141 221.22958984 62.46347656 220.47871094 61.66992188 219.70507812 C60.85072266 218.93615234 60.03152344 218.16722656 59.1875 217.375 C58.37216797 216.58673828 57.55683594 215.79847656 56.71679688 214.98632812 C54.69895416 213.03928691 52.66848191 211.10755649 50.625 209.1875 C47.61199573 210.56127806 47.61199573 210.56127806 45.3125 212.875 C43.625 214.1875 43.625 214.1875 40.5 214.3125 C36.0119119 213.51377246 33.11583594 210.58165701 29.8359375 207.5859375 C27.73355595 205.95658008 27.73355595 205.95658008 25.30859375 206.31640625 C21.95450653 207.40514199 18.6219745 208.53323131 15.3125 209.75 C14.66732422 209.98396484 14.02214844 210.21792969 13.35742188 210.45898438 C11.77878781 211.03197007 10.20172974 211.60929464 8.625 212.1875 C8.50382813 213.23550781 8.38265625 214.28351563 8.2578125 215.36328125 C8.08896055 216.74223886 7.91966659 218.12114239 7.75 219.5 C7.67136719 220.19029297 7.59273437 220.88058594 7.51171875 221.59179688 C7.06556153 225.14389471 6.64519807 227.1572029 4.625 230.1875 C0.995 230.1875 -2.635 230.1875 -6.375 230.1875 C-6.375 239.7575 -6.375 249.3275 -6.375 259.1875 C-4.725 259.5175 -3.075 259.8475 -1.375 260.1875 C2.36277966 262.67935311 4.93319025 265.00249694 6.625 269.1875 C7.53646411 274.98441176 7.47018625 279.75819984 4.0625 284.6875 C0.983911 288.19047393 -1.78498766 290.02054771 -6.375 291.1875 C-12.3926307 291.41894733 -16.73511583 290.17995847 -21.375 286.1875 C-24.80417072 282.48760527 -25.67469749 279.6082651 -25.875 274.6875 C-25.67469749 269.7667349 -24.80417072 266.88739473 -21.375 263.1875 C-16.21710526 259.1875 -16.21710526 259.1875 -12.375 259.1875 C-12.375 249.6175 -12.375 240.0475 -12.375 230.1875 C-15.675 230.1875 -18.975 230.1875 -22.375 230.1875 C-25.64845993 226.91404007 -26.25553072 222.3902148 -26.5 217.8828125 C-26.5 215.98391781 -26.44277446 214.08518482 -26.375 212.1875 C-28.0765625 211.81625 -28.0765625 211.81625 -29.8125 211.4375 C-33.9321644 210.43502394 -37.52715568 208.81329126 -41.296875 206.89453125 C-43.87677595 206.01678299 -44.86197508 206.15922594 -47.375 207.1875 C-49.94306407 208.92877271 -52.37960459 210.80154711 -54.83984375 212.69140625 C-57.69714057 214.37760761 -59.1178362 214.69980225 -62.375 214.1875 C-65.1875 211.6875 -65.1875 211.6875 -67.375 209.1875 C-72.20104496 211.35365659 -75.45972271 214.82822688 -79.1875 218.5 C-79.89326172 219.16451172 -80.59902344 219.82902344 -81.32617188 220.51367188 C-81.98810547 221.16529297 -82.65003906 221.81691406 -83.33203125 222.48828125 C-83.94022705 223.07778564 -84.54842285 223.66729004 -85.17504883 224.2746582 C-86.64753085 226.17982879 -86.64753085 226.17982879 -86.08007812 228.76464844 C-85.84740234 229.56418945 -85.61472656 230.36373047 -85.375 231.1875 C-84.88918445 236.21290345 -84.76679798 240.01453895 -87.125 244.5625 C-93.41800024 251.90433362 -93.41800024 251.90433362 -98.86328125 252.42578125 C-104.89643861 252.58432895 -108.74051304 252.48287816 -113.375 248.1875 C-116.91574983 244.46039492 -117.74106299 241.31683302 -118.0625 236.3125 C-117.88473426 230.59555387 -116.25983499 227.72470467 -112.296875 223.7109375 C-108.67470351 220.839704 -106.06843683 219.92150955 -101.4375 220 C-100.18646484 220.00966797 -100.18646484 220.00966797 -98.91015625 220.01953125 C-96.375 220.1875 -96.375 220.1875 -93.97949219 220.92431641 C-91.30904628 221.47593854 -91.30904628 221.47593854 -89.24682617 219.74047852 C-88.56080322 219.02303467 -87.87478027 218.30559082 -87.16796875 217.56640625 C-86.41708984 216.79619141 -85.66621094 216.02597656 -84.89257812 215.23242188 C-84.12365234 214.41322266 -83.35472656 213.59402344 -82.5625 212.75 C-81.77423828 211.93466797 -80.98597656 211.11933594 -80.17382812 210.27929688 C-78.22678691 208.26145416 -76.29505649 206.23098191 -74.375 204.1875 C-75.45550154 201.91797494 -76.40061939 200.15808514 -78.0625 198.25 C-79.375 196.1875 -79.375 196.1875 -79.234375 193.86328125 C-78.1520578 190.49333905 -76.36289645 188.86932187 -73.9375 186.3125 C-71.05370518 182.69435697 -71.05370518 182.69435697 -70.57324219 178.26464844 C-71.89402962 173.62058939 -74.12037058 169.43640903 -76.375 165.1875 C-76.705 164.1975 -77.035 163.2075 -77.375 162.1875 C-78.42300781 162.07792969 -79.47101563 161.96835937 -80.55078125 161.85546875 C-81.92976651 161.69599426 -83.30866871 161.53580034 -84.6875 161.375 C-85.72293945 161.26961914 -85.72293945 161.26961914 -86.77929688 161.16210938 C-91.03170392 160.64853365 -92.22629051 160.33620949 -95.375 157.1875 C-95.375 153.8875 -95.375 150.5875 -95.375 147.1875 C-104.945 147.1875 -114.515 147.1875 -124.375 147.1875 C-124.705 148.8375 -125.035 150.4875 -125.375 152.1875 C-128.69988456 156.77044898 -131.22881741 159.67942082 -136.890625 160.59375 C-143.12146046 160.80737864 -147.01829885 160.11875961 -151.78125 155.9609375 C-155.14334982 152.21977741 -156.19959975 148.59070202 -156.8125 143.6875 C-156.09219145 137.92503156 -153.65761468 133.95797046 -149.3125 130.25 C-144.6404111 127.24221745 -139.72531914 127.08370923 -134.375 128.1875 C-130.01746797 130.44382726 -127.08762326 133.1185651 -124.375 137.1875 C-124.375 138.5075 -124.375 139.8275 -124.375 141.1875 C-114.805 141.1875 -105.235 141.1875 -95.375 141.1875 C-95.375 137.8875 -95.375 134.5875 -95.375 131.1875 C-91.10748759 127.98686569 -89.2730723 127.61967537 -84.125 127 C-82.86171875 126.84144531 -81.5984375 126.68289062 -80.296875 126.51953125 C-79.33265625 126.40996094 -78.3684375 126.30039063 -77.375 126.1875 C-76.55525737 124.14873051 -75.7445193 122.10633925 -74.9375 120.0625 C-74.48503906 118.92554688 -74.03257812 117.78859375 -73.56640625 116.6171875 C-71.95280498 111.99895611 -71.95280498 111.99895611 -71.375 107.1875 C-73.01978677 104.31067395 -73.01978677 104.31067395 -75.375 101.6875 C-79.4039266 96.950789 -79.4039266 96.950789 -79.25390625 92.9921875 C-78.2431532 89.76676222 -76.9390315 88.33797803 -74.375 86.1875 C-76.54115659 81.36145504 -80.01572688 78.10277729 -83.6875 74.375 C-84.35201172 73.66923828 -85.01652344 72.96347656 -85.70117188 72.23632812 C-86.35279297 71.57439453 -87.00441406 70.91246094 -87.67578125 70.23046875 C-88.26528564 69.62227295 -88.85479004 69.01407715 -89.4621582 68.38745117 C-91.36786615 66.91499056 -91.36786615 66.91499056 -93.95654297 67.48022461 C-95.1536792 67.83032593 -95.1536792 67.83032593 -96.375 68.1875 C-102.64648656 68.9036567 -107.46392764 68.56706964 -112.67578125 64.79296875 C-116.36474751 61.30753166 -118.14527083 57.75885456 -118.59765625 52.6953125 C-118.38774852 47.17054114 -117.00735982 43.53976212 -113.1171875 39.59375 C-109.47950785 36.65750633 -105.99344638 35.38567711 -101.3125 34.8125 C-94.90230706 35.6308225 -91.5097847 38.76315647 -87.57421875 43.56640625 C-85.40516176 46.49851912 -85.23920768 48.40076046 -85.25 52 C-85.24613281 53.27810547 -85.24613281 53.27810547 -85.2421875 54.58203125 C-85.375 57.1875 -85.375 57.1875 -86.10961914 59.58740234 C-86.66347869 62.25398213 -86.66347869 62.25398213 -84.92797852 64.31567383 C-84.21053467 65.00169678 -83.49309082 65.68771973 -82.75390625 66.39453125 C-81.98369141 67.14541016 -81.21347656 67.89628906 -80.41992188 68.66992188 C-79.60072266 69.43884766 -78.78152344 70.20777344 -77.9375 71 C-77.12216797 71.78826172 -76.30683594 72.57652344 -75.46679688 73.38867188 C-73.44895416 75.33571309 -71.41848191 77.26744351 -69.375 79.1875 C-67.10547494 78.10699846 -65.34558514 77.16188061 -63.4375 75.5 C-61.375 74.1875 -61.375 74.1875 -59.0546875 74.328125 C-55.67706173 75.4113286 -54.01319716 77.20805151 -51.4375 79.625 C-48.66159203 81.95173058 -48.66159203 81.95173058 -45.375 83.1875 C-40.12778981 82.0869199 -36.06764205 79.77592549 -31.375 77.1875 C-28.96484375 76.46484375 -28.96484375 76.46484375 -27.375 76.1875 C-27.26542969 75.13949219 -27.15585938 74.09148437 -27.04296875 73.01171875 C-26.88349426 71.63273349 -26.72330034 70.25383129 -26.5625 68.875 C-26.45711914 67.83956055 -26.45711914 67.83956055 -26.34960938 66.78320312 C-25.73467316 61.69153129 -25.73467316 61.69153129 -24.15356445 59.47583008 C-21.73918642 57.72693881 -20.13492162 57.88516539 -17.1875 58 C-16.28644531 58.02707031 -15.38539063 58.05414063 -14.45703125 58.08203125 C-13.42642578 58.13423828 -13.42642578 58.13423828 -12.375 58.1875 C-12.33972612 53.6027884 -12.38142817 49.02193297 -12.4375 44.4375 C-12.42654297 43.13554687 -12.41558594 41.83359375 -12.40429688 40.4921875 C-12.19738368 34.01620529 -12.19738368 34.01620529 -14.91210938 28.49438477 C-17.00388353 27.26854314 -17.00388353 27.26854314 -20.375 26.1875 C-24.7635376 21.4524989 -25.68153162 17.74427566 -25.58984375 11.46875 C-25.15593315 6.86140837 -23.29615924 4.06017718 -20 0.9375 C-13.23442998 -3.57288002 -7.22533238 -3.88027109 0 0 Z " fill="#8E61F0" transform="translate(265.375,111.8125)"/>
<path d="M0 0 C3.99059281 3.32549401 6.30656041 6.15449337 6.86328125 11.45703125 C7.03219012 17.2443826 6.74111223 20.76267935 2.625 25.1875 C1.26153189 25.78121356 -0.10314593 26.3721535 -1.46875 26.9609375 C-4.50968471 28.81794142 -5.25574853 29.70239533 -6.11914062 33.21459961 C-6.3889599 36.99644632 -6.43166533 40.7090895 -6.375 44.5 C-6.39240234 46.46936523 -6.39240234 46.46936523 -6.41015625 48.47851562 C-6.43370464 51.71641896 -6.42069309 54.94995427 -6.375 58.1875 C-5.68792969 58.15269531 -5.00085938 58.11789063 -4.29296875 58.08203125 C-3.39191406 58.05496094 -2.49085938 58.02789062 -1.5625 58 C-0.22251953 57.94779297 -0.22251953 57.94779297 1.14453125 57.89453125 C3.625 58.1875 3.625 58.1875 5.40356445 59.47583008 C7.4081597 62.28498804 7.47212379 65.53056954 7.8125 68.875 C7.9352832 69.9278418 7.9352832 69.9278418 8.06054688 71.00195312 C8.26029273 72.72916726 8.44419988 74.45820003 8.625 76.1875 C9.50542969 76.52523437 10.38585937 76.86296875 11.29296875 77.2109375 C12.45441406 77.65695313 13.61585938 78.10296875 14.8125 78.5625 C16.53533203 79.22378906 16.53533203 79.22378906 18.29296875 79.8984375 C21.625 81.1875 21.625 81.1875 24.1796875 82.62890625 C26.82584257 83.53552202 26.82584257 83.53552202 29.52734375 81.37890625 C30.55372604 80.5198256 31.56515653 79.64262879 32.5625 78.75 C37.69260168 74.16269618 37.69260168 74.16269618 41.85546875 74.2734375 C45.032945 75.32213911 46.49432451 76.64707922 48.625 79.1875 C53.43396408 77.0230346 56.70741047 73.58703361 60.4375 69.9375 C61.14326172 69.28136719 61.84902344 68.62523437 62.57617188 67.94921875 C64.46084121 66.10308696 66.14009639 64.36884756 67.625 62.1875 C67.76969201 58.98960878 67.76969201 58.98960878 66.625 56.1875 C65.89982196 50.15816262 66.51382605 45.93401867 70.078125 40.91796875 C73.05434682 37.58850849 76.1203838 35.60978994 80.640625 34.84765625 C86.27466359 34.5788567 89.97523425 36.10901402 94.328125 39.5234375 C98.09319556 43.13016398 99.06911613 46.04312872 99.25 51.25 C98.97884688 56.30101508 98.14339281 59.3838321 94.625 63.1875 C90.5357231 66.78995822 88.23265433 68.32875234 82.8125 68.3125 C81.96042969 68.31507813 81.10835937 68.31765625 80.23046875 68.3203125 C77.625 68.1875 77.625 68.1875 75.22509766 67.45288086 C72.55851787 66.89902131 72.55851787 66.89902131 70.49682617 68.63452148 C69.81080322 69.35196533 69.12478027 70.06940918 68.41796875 70.80859375 C67.66708984 71.57880859 66.91621094 72.34902344 66.14257812 73.14257812 C64.98918945 74.37137695 64.98918945 74.37137695 63.8125 75.625 C62.63010742 76.84799805 62.63010742 76.84799805 61.42382812 78.09570312 C59.47678691 80.11354584 57.54505649 82.14401809 55.625 84.1875 C56.70550154 86.45702506 57.65061939 88.21691486 59.3125 90.125 C60.625 92.1875 60.625 92.1875 60.43359375 94.5078125 C59.21196846 98.55629053 56.6404952 101.3262797 54.0234375 104.58984375 C52.19340564 107.98920461 52.66300226 109.49751832 53.625 113.1875 C53.83253906 114.28449219 54.04007813 115.38148438 54.25390625 116.51171875 C55.30702783 120.30560027 56.26839461 123.01083046 58.625 126.1875 C62.56021668 128.08022418 66.8059886 128.40939997 71.10546875 128.79296875 C74.625 129.1875 74.625 129.1875 76.625 131.1875 C76.625 134.4875 76.625 137.7875 76.625 141.1875 C86.195 141.1875 95.765 141.1875 105.625 141.1875 C105.955 139.5375 106.285 137.8875 106.625 136.1875 C109.11685311 132.44972034 111.43999694 129.87930975 115.625 128.1875 C121.45772971 127.27040413 126.19454761 127.34022207 131.125 130.8125 C135.37173745 134.52839527 137.33054894 137.91602041 138.0625 143.5625 C137.34242895 149.52880296 135.1954297 154.24505502 130.5625 158.1875 C125.88378983 161.12926412 120.94762257 161.27795133 115.625 160.1875 C111.00618078 157.86314276 107.55514988 155.06568975 105.625 150.1875 C105.625 149.1975 105.625 148.2075 105.625 147.1875 C96.055 147.1875 86.485 147.1875 76.625 147.1875 C76.625 150.4875 76.625 153.7875 76.625 157.1875 C72.35748759 160.38813431 70.5230723 160.75532463 65.375 161.375 C64.11171875 161.53355469 62.8484375 161.69210937 61.546875 161.85546875 C60.58265625 161.96503906 59.6184375 162.07460938 58.625 162.1875 C57.58834662 164.74457833 56.5706027 167.30668513 55.5625 169.875 C55.26794922 170.59623047 54.97339844 171.31746094 54.66992188 172.06054688 C52.52263151 177.53564401 52.52263151 177.53564401 53.625 183.1875 C55.27014974 185.48021532 55.27014974 185.48021532 57.25 187.625 C60.60123151 191.76759009 60.60123151 191.76759009 60.8125 195.5 C59.50841243 198.45135608 58.0856744 200.12370857 55.625 202.1875 C57.79115659 207.01354496 61.26572688 210.27222271 64.9375 214 C65.60201172 214.70576172 66.26652344 215.41152344 66.95117188 216.13867188 C67.60279297 216.80060547 68.25441406 217.46253906 68.92578125 218.14453125 C69.51528564 218.75272705 70.10479004 219.36092285 70.7121582 219.98754883 C72.61982955 221.46132659 72.61982955 221.46132659 75.22021484 220.89257812 C76.01379395 220.65990234 76.80737305 220.42722656 77.625 220.1875 C84.15374221 219.4725031 89.22621319 220.3120729 94.625 224.1875 C98.36907512 227.93157512 98.92212053 231.06479347 99.125 236.1875 C98.87656236 242.8787538 96.9393755 245.98884327 92.125 250.5625 C86.92319041 252.97762588 82.25035901 253.2919553 76.625 252.1875 C72.45587587 249.84072887 69.66335218 246.83155762 67.125 242.8125 C66.2433241 238.1837015 65.95781493 233.34225574 67.36181641 228.80786133 C67.91465964 226.12369638 67.91465964 226.12369638 66.17797852 224.05932617 C65.46053467 223.37330322 64.74309082 222.68728027 64.00390625 221.98046875 C63.23369141 221.22958984 62.46347656 220.47871094 61.66992188 219.70507812 C60.85072266 218.93615234 60.03152344 218.16722656 59.1875 217.375 C58.37216797 216.58673828 57.55683594 215.79847656 56.71679688 214.98632812 C54.69895416 213.03928691 52.66848191 211.10755649 50.625 209.1875 C47.61199573 210.56127806 47.61199573 210.56127806 45.3125 212.875 C43.625 214.1875 43.625 214.1875 40.5 214.3125 C36.0119119 213.51377246 33.11583594 210.58165701 29.8359375 207.5859375 C27.73355595 205.95658008 27.73355595 205.95658008 25.30859375 206.31640625 C21.95450653 207.40514199 18.6219745 208.53323131 15.3125 209.75 C14.66732422 209.98396484 14.02214844 210.21792969 13.35742188 210.45898438 C11.77878781 211.03197007 10.20172974 211.60929464 8.625 212.1875 C8.50382813 213.23550781 8.38265625 214.28351563 8.2578125 215.36328125 C8.08896055 216.74223886 7.91966659 218.12114239 7.75 219.5 C7.67136719 220.19029297 7.59273437 220.88058594 7.51171875 221.59179688 C7.06556153 225.14389471 6.64519807 227.1572029 4.625 230.1875 C0.995 230.1875 -2.635 230.1875 -6.375 230.1875 C-6.375 239.7575 -6.375 249.3275 -6.375 259.1875 C-4.725 259.5175 -3.075 259.8475 -1.375 260.1875 C2.36277966 262.67935311 4.93319025 265.00249694 6.625 269.1875 C7.53646411 274.98441176 7.47018625 279.75819984 4.0625 284.6875 C0.983911 288.19047393 -1.78498766 290.02054771 -6.375 291.1875 C-12.3926307 291.41894733 -16.73511583 290.17995847 -21.375 286.1875 C-24.80417072 282.48760527 -25.67469749 279.6082651 -25.875 274.6875 C-25.67469749 269.7667349 -24.80417072 266.88739473 -21.375 263.1875 C-16.21710526 259.1875 -16.21710526 259.1875 -12.375 259.1875 C-12.375 249.6175 -12.375 240.0475 -12.375 230.1875 C-15.675 230.1875 -18.975 230.1875 -22.375 230.1875 C-25.64845993 226.91404007 -26.25553072 222.3902148 -26.5 217.8828125 C-26.5 215.98391781 -26.44277446 214.08518482 -26.375 212.1875 C-28.0765625 211.81625 -28.0765625 211.81625 -29.8125 211.4375 C-33.9321644 210.43502394 -37.52715568 208.81329126 -41.296875 206.89453125 C-43.87677595 206.01678299 -44.86197508 206.15922594 -47.375 207.1875 C-49.94306407 208.92877271 -52.37960459 210.80154711 -54.83984375 212.69140625 C-57.69714057 214.37760761 -59.1178362 214.69980225 -62.375 214.1875 C-65.1875 211.6875 -65.1875 211.6875 -67.375 209.1875 C-72.20104496 211.35365659 -75.45972271 214.82822688 -79.1875 218.5 C-79.89326172 219.16451172 -80.59902344 219.82902344 -81.32617188 220.51367188 C-81.98810547 221.16529297 -82.65003906 221.81691406 -83.33203125 222.48828125 C-83.94022705 223.07778564 -84.54842285 223.66729004 -85.17504883 224.2746582 C-86.64753085 226.17982879 -86.64753085 226.17982879 -86.08007812 228.76464844 C-85.84740234 229.56418945 -85.61472656 230.36373047 -85.375 231.1875 C-84.88918445 236.21290345 -84.76679798 240.01453895 -87.125 244.5625 C-93.41800024 251.90433362 -93.41800024 251.90433362 -98.86328125 252.42578125 C-104.89643861 252.58432895 -108.74051304 252.48287816 -113.375 248.1875 C-116.91574983 244.46039492 -117.74106299 241.31683302 -118.0625 236.3125 C-117.88473426 230.59555387 -116.25983499 227.72470467 -112.296875 223.7109375 C-108.67470351 220.839704 -106.06843683 219.92150955 -101.4375 220 C-100.18646484 220.00966797 -100.18646484 220.00966797 -98.91015625 220.01953125 C-96.375 220.1875 -96.375 220.1875 -93.97949219 220.92431641 C-91.30904628 221.47593854 -91.30904628 221.47593854 -89.24682617 219.74047852 C-88.56080322 219.02303467 -87.87478027 218.30559082 -87.16796875 217.56640625 C-86.41708984 216.79619141 -85.66621094 216.02597656 -84.89257812 215.23242188 C-84.12365234 214.41322266 -83.35472656 213.59402344 -82.5625 212.75 C-81.77423828 211.93466797 -80.98597656 211.11933594 -80.17382812 210.27929688 C-78.22678691 208.26145416 -76.29505649 206.23098191 -74.375 204.1875 C-75.45550154 201.91797494 -76.40061939 200.15808514 -78.0625 198.25 C-79.375 196.1875 -79.375 196.1875 -79.234375 193.86328125 C-78.1520578 190.49333905 -76.36289645 188.86932187 -73.9375 186.3125 C-71.05370518 182.69435697 -71.05370518 182.69435697 -70.57324219 178.26464844 C-71.89402962 173.62058939 -74.12037058 169.43640903 -76.375 165.1875 C-76.705 164.1975 -77.035 163.2075 -77.375 162.1875 C-78.42300781 162.07792969 -79.47101563 161.96835937 -80.55078125 161.85546875 C-81.92976651 161.69599426 -83.30866871 161.53580034 -84.6875 161.375 C-85.72293945 161.26961914 -85.72293945 161.26961914 -86.77929688 161.16210938 C-91.03170392 160.64853365 -92.22629051 160.33620949 -95.375 157.1875 C-95.375 153.8875 -95.375 150.5875 -95.375 147.1875 C-104.945 147.1875 -114.515 147.1875 -124.375 147.1875 C-124.705 148.8375 -125.035 150.4875 -125.375 152.1875 C-128.69988456 156.77044898 -131.22881741 159.67942082 -136.890625 160.59375 C-143.12146046 160.80737864 -147.01829885 160.11875961 -151.78125 155.9609375 C-155.14334982 152.21977741 -156.19959975 148.59070202 -156.8125 143.6875 C-156.09219145 137.92503156 -153.65761468 133.95797046 -149.3125 130.25 C-144.6404111 127.24221745 -139.72531914 127.08370923 -134.375 128.1875 C-130.01746797 130.44382726 -127.08762326 133.1185651 -124.375 137.1875 C-124.375 138.5075 -124.375 139.8275 -124.375 141.1875 C-114.805 141.1875 -105.235 141.1875 -95.375 141.1875 C-95.375 137.8875 -95.375 134.5875 -95.375 131.1875 C-91.10748759 127.98686569 -89.2730723 127.61967537 -84.125 127 C-82.86171875 126.84144531 -81.5984375 126.68289062 -80.296875 126.51953125 C-79.33265625 126.40996094 -78.3684375 126.30039063 -77.375 126.1875 C-76.55525737 124.14873051 -75.7445193 122.10633925 -74.9375 120.0625 C-74.48503906 118.92554688 -74.03257812 117.78859375 -73.56640625 116.6171875 C-71.95280498 111.99895611 -71.95280498 111.99895611 -71.375 107.1875 C-73.01978677 104.31067395 -73.01978677 104.31067395 -75.375 101.6875 C-79.4039266 96.950789 -79.4039266 96.950789 -79.25390625 92.9921875 C-78.2431532 89.76676222 -76.9390315 88.33797803 -74.375 86.1875 C-76.54115659 81.36145504 -80.01572688 78.10277729 -83.6875 74.375 C-84.35201172 73.66923828 -85.01652344 72.96347656 -85.70117188 72.23632812 C-86.35279297 71.57439453 -87.00441406 70.91246094 -87.67578125 70.23046875 C-88.26528564 69.62227295 -88.85479004 69.01407715 -89.4621582 68.38745117 C-91.36786615 66.91499056 -91.36786615 66.91499056 -93.95654297 67.48022461 C-95.1536792 67.83032593 -95.1536792 67.83032593 -96.375 68.1875 C-102.64648656 68.9036567 -107.46392764 68.56706964 -112.67578125 64.79296875 C-116.36474751 61.30753166 -118.14527083 57.75885456 -118.59765625 52.6953125 C-118.38774852 47.17054114 -117.00735982 43.53976212 -113.1171875 39.59375 C-109.47950785 36.65750633 -105.99344638 35.38567711 -101.3125 34.8125 C-94.90230706 35.6308225 -91.5097847 38.76315647 -87.57421875 43.56640625 C-85.40516176 46.49851912 -85.23920768 48.40076046 -85.25 52 C-85.24613281 53.27810547 -85.24613281 53.27810547 -85.2421875 54.58203125 C-85.375 57.1875 -85.375 57.1875 -86.10961914 59.58740234 C-86.66347869 62.25398213 -86.66347869 62.25398213 -84.92797852 64.31567383 C-84.21053467 65.00169678 -83.49309082 65.68771973 -82.75390625 66.39453125 C-81.98369141 67.14541016 -81.21347656 67.89628906 -80.41992188 68.66992188 C-79.60072266 69.43884766 -78.78152344 70.20777344 -77.9375 71 C-77.12216797 71.78826172 -76.30683594 72.57652344 -75.46679688 73.38867188 C-73.44895416 75.33571309 -71.41848191 77.26744351 -69.375 79.1875 C-67.10547494 78.10699846 -65.34558514 77.16188061 -63.4375 75.5 C-61.375 74.1875 -61.375 74.1875 -59.0546875 74.328125 C-55.67706173 75.4113286 -54.01319716 77.20805151 -51.4375 79.625 C-48.66159203 81.95173058 -48.66159203 81.95173058 -45.375 83.1875 C-40.12778981 82.0869199 -36.06764205 79.77592549 -31.375 77.1875 C-28.96484375 76.46484375 -28.96484375 76.46484375 -27.375 76.1875 C-27.26542969 75.13949219 -27.15585938 74.09148437 -27.04296875 73.01171875 C-26.88349426 71.63273349 -26.72330034 70.25383129 -26.5625 68.875 C-26.45711914 67.83956055 -26.45711914 67.83956055 -26.34960938 66.78320312 C-25.73467316 61.69153129 -25.73467316 61.69153129 -24.15356445 59.47583008 C-21.73918642 57.72693881 -20.13492162 57.88516539 -17.1875 58 C-16.28644531 58.02707031 -15.38539063 58.05414063 -14.45703125 58.08203125 C-13.42642578 58.13423828 -13.42642578 58.13423828 -12.375 58.1875 C-12.33972612 53.6027884 -12.38142817 49.02193297 -12.4375 44.4375 C-12.42654297 43.13554687 -12.41558594 41.83359375 -12.40429688 40.4921875 C-12.19738368 34.01620529 -12.19738368 34.01620529 -14.91210938 28.49438477 C-17.00388353 27.26854314 -17.00388353 27.26854314 -20.375 26.1875 C-24.7635376 21.4524989 -25.68153162 17.74427566 -25.58984375 11.46875 C-25.15593315 6.86140837 -23.29615924 4.06017718 -20 0.9375 C-13.23442998 -3.57288002 -7.22533238 -3.88027109 0 0 Z M-19.375 65.1875 C-19.66148879 67.89777491 -19.82335421 70.60839608 -19.99609375 73.328125 C-20.41215093 76.4678555 -20.69289814 78.48347604 -22.375 81.1875 C-25.03047814 82.46660934 -27.4076116 83.42630227 -30.1875 84.3125 C-31.61226009 84.78956899 -33.03548466 85.27125169 -34.45703125 85.7578125 C-35.13588379 85.98758789 -35.81473633 86.21736328 -36.51416016 86.45410156 C-38.59306135 87.20305235 -38.59306135 87.20305235 -41.07421875 88.9296875 C-43.375 90.1875 -43.375 90.1875 -45.90234375 90.1015625 C-49.67095208 88.70842767 -52.20296065 86.20665409 -55.19140625 83.5859375 C-57.21587114 82.01524574 -57.21587114 82.01524574 -59.3203125 82.17578125 C-62.29995717 83.64294469 -64.330552 85.67033938 -66.6875 88 C-67.59113281 88.87269531 -68.49476563 89.74539062 -69.42578125 90.64453125 C-71.57785757 92.92479509 -71.57785757 92.92479509 -71.39453125 95.23828125 C-70.12783941 97.66004074 -68.55580528 99.51208365 -66.75 101.5625 C-63.40877981 105.79058728 -63.40877981 105.79058728 -63.125 109.125 C-64.59489943 112.72625361 -66.2970961 116.14951853 -68.125 119.58203125 C-69.33871591 122.11187035 -70.05198179 124.47831683 -70.75 127.1875 C-71.45703125 129.41015625 -71.45703125 129.41015625 -72.375 131.1875 C-75.4375 132.625 -75.4375 132.625 -79.375 133.1875 C-81.18902252 133.55506433 -83.00150604 133.93029306 -84.8125 134.3125 C-86.318125 134.60125 -87.82375 134.89 -89.375 135.1875 C-89.375 141.1275 -89.375 147.0675 -89.375 153.1875 C-84.57589461 154.05271563 -84.57589461 154.05271563 -79.7722168 154.8918457 C-77.12858378 155.39423157 -74.82800145 155.89552262 -72.55078125 157.36328125 C-70.78596772 160.10138065 -69.8933577 162.97478723 -68.875 166.0625 C-67.20059947 171.14832162 -67.20059947 171.14832162 -64.65625 175.8203125 C-63.375 178.1875 -63.375 178.1875 -63.4609375 180.71484375 C-64.85407233 184.48345208 -67.35584591 187.01546065 -69.9765625 190.00390625 C-71.54725426 192.02837114 -71.54725426 192.02837114 -71.38671875 194.1328125 C-69.91955531 197.11245717 -67.89216062 199.143052 -65.5625 201.5 C-64.25345703 202.85544922 -64.25345703 202.85544922 -62.91796875 204.23828125 C-60.64235423 206.38670446 -60.64235423 206.38670446 -58.359375 206.20703125 C-54.89647369 204.42786345 -51.96712945 201.97670789 -48.91015625 199.5859375 C-46.375 198.1875 -46.375 198.1875 -43.85546875 198.328125 C-41.29134642 199.21648234 -39.01311922 200.27478865 -36.625 201.5625 C-32.5514219 203.69685978 -28.65121065 205.13470599 -24.1875 206.21875 C-22.375 207.1875 -22.375 207.1875 -21.1953125 209.38671875 C-19.77087581 214.25015258 -19.14509635 219.18187374 -18.375 224.1875 C-12.105 224.1875 -5.835 224.1875 0.625 224.1875 C1.0442229 219.05922185 1.0442229 219.05922185 1.40087891 213.92651367 C1.6015625 211.98046875 1.6015625 211.98046875 2.625 208.1875 C5.28515625 206.33984375 5.28515625 206.33984375 8.625 205.1875 C9.74519531 204.74148438 10.86539063 204.29546875 12.01953125 203.8359375 C13.14746094 203.41570312 14.27539062 202.99546875 15.4375 202.5625 C19.31466452 201.35860238 19.31466452 201.35860238 22.625 199.1875 C26.60544226 198.52409296 28.54419994 198.4331532 31.9140625 200.78515625 C33.4446355 202.07257802 34.94657016 203.39501894 36.4140625 204.75390625 C38.55197756 206.44303164 38.55197756 206.44303164 41.23828125 206.078125 C44.19145046 204.97612405 45.55061627 203.22215645 47.41796875 200.73828125 C48.625 199.1875 48.625 199.1875 51 197.0625 C51.53625 196.44375 52.0725 195.825 52.625 195.1875 C52.1816388 190.52213105 48.80433543 187.27846843 46.0234375 183.72265625 C44.625 181.1875 44.625 181.1875 44.80078125 178.59765625 C45.53942551 176.43773442 46.33547316 174.55580752 47.4375 172.5625 C49.66112675 168.37120354 51.04368857 164.04508888 52.40234375 159.5078125 C53.625 157.1875 53.625 157.1875 55.859375 155.9375 C60.72793646 154.61721215 65.64075185 153.95430741 70.625 153.1875 C70.625 147.2475 70.625 141.3075 70.625 135.1875 C65.49895295 134.48006718 65.49895295 134.48006718 60.36401367 133.84350586 C58.27025197 133.5033451 56.54262306 133.10497646 54.625 132.1875 C53.21513572 129.69312473 52.45851438 127.84847401 51.625 125.1875 C51.02824719 123.91343194 50.40788162 122.65018419 49.765625 121.3984375 C49.45496094 120.76679688 49.14429688 120.13515625 48.82421875 119.484375 C48.18522314 118.19060611 47.53657052 116.90156713 46.87890625 115.6171875 C45.51873741 112.81650229 44.61281727 110.65112057 44.6953125 107.51171875 C46.15787023 103.85532443 48.65515496 101.30331144 51.2265625 98.37109375 C52.79725426 96.34662886 52.79725426 96.34662886 52.63671875 94.2421875 C51.16955531 91.26254283 49.14216062 89.231948 46.8125 86.875 C45.93980469 85.97136719 45.06710937 85.06773437 44.16796875 84.13671875 C41.89235423 81.98829554 41.89235423 81.98829554 39.609375 82.16796875 C36.14647369 83.94713655 33.21712945 86.39829211 30.16015625 88.7890625 C27.625 90.1875 27.625 90.1875 25.140625 90.046875 C22.43219197 89.1216339 19.8956132 88.04611412 17.3125 86.8125 C13.91825281 85.19793917 10.66616317 83.86466443 7.0625 82.8125 C3.625 81.1875 3.625 81.1875 2.25 78.125 C1.940625 76.1759375 1.940625 76.1759375 1.625 74.1875 C1.25489669 72.37399379 0.87975012 70.56151072 0.5 68.75 C0.20546001 67.22972053 -0.08721756 65.70907311 -0.375 64.1875 C-3.35422593 64.16066013 -6.33321295 64.14073963 -9.3125 64.125 C-10.16263672 64.11662109 -11.01277344 64.10824219 -11.88867188 64.09960938 C-12.69755859 64.09638672 -13.50644531 64.09316406 -14.33984375 64.08984375 C-15.0887085 64.08460693 -15.83757324 64.07937012 -16.60913086 64.07397461 C-18.40167739 63.99408248 -18.40167739 63.99408248 -19.375 65.1875 Z " fill="#FAF9FD" transform="translate(265.375,111.8125)"/>
<path d="M0 0 C0.74886475 0.00523682 1.49772949 0.01047363 2.26928711 0.01586914 C3.07817383 0.0190918 3.88706055 0.02231445 4.72045898 0.02563477 C5.5705957 0.03401367 6.42073242 0.04239258 7.29663086 0.05102539 C8.15063477 0.05553711 9.00463867 0.06004883 9.88452148 0.06469727 C12.00108749 0.07652166 14.11761771 0.0944577 16.23413086 0.11352539 C16.42749023 1.24532227 16.62084961 2.37711914 16.82006836 3.54321289 C17.08267372 5.02505741 17.34571733 6.50682432 17.60913086 7.98852539 C17.79862305 9.10807617 17.79862305 9.10807617 17.99194336 10.25024414 C18.6868178 14.62343071 18.6868178 14.62343071 21.23413086 18.11352539 C23.09005554 18.79307935 24.96938411 19.40964094 26.85913086 19.98852539 C30.6825186 21.20193587 34.16145307 22.48636692 37.67163086 24.42602539 C41.55407257 26.26507673 42.31355707 26.38651657 46.23413086 25.11352539 C48.64820437 23.37930058 50.81675068 21.47088132 53.05053711 19.51196289 C55.23413086 18.11352539 55.23413086 18.11352539 57.17944336 18.10180664 C60.15908802 19.56897008 62.18968286 21.59636478 64.54663086 23.92602539 C65.45026367 24.7987207 66.35389648 25.67141602 67.28491211 26.57055664 C69.23413086 29.11352539 69.23413086 29.11352539 69.25366211 31.16430664 C67.54816242 34.42501295 65.07263381 36.97006161 62.63256836 39.69946289 C60.97518825 42.06549285 60.97518825 42.06549285 61.34350586 45.00024414 C62.31177286 48.38493186 63.57911977 51.38062928 65.10913086 54.55102539 C66.76633239 58.01116226 68.27162136 61.23354447 69.41772461 64.90258789 C70.83783671 68.12664072 70.83783671 68.12664072 72.96948242 68.94677734 C75.13281689 69.47939707 77.20683539 69.79639789 79.42163086 70.05102539 C81.99975586 70.40165039 84.57788086 70.75227539 87.23413086 71.11352539 C87.23413086 77.05352539 87.23413086 82.99352539 87.23413086 89.11352539 C84.67663086 89.42290039 82.11913086 89.73227539 79.48413086 90.05102539 C73.9159039 90.87874675 73.9159039 90.87874675 69.42163086 93.96508789 C68.41796709 96.33206162 67.80947321 98.60886836 67.23413086 101.11352539 C66.55281256 102.9156383 65.84438965 104.70773903 65.10913086 106.48852539 C64.79717773 107.30063477 64.48522461 108.11274414 64.16381836 108.94946289 C63.23413086 111.11352539 63.23413086 111.11352539 61.23413086 114.11352539 C61.55867374 119.36599574 64.50358653 122.13027623 67.83569336 125.92993164 C69.23413086 128.11352539 69.23413086 128.11352539 69.15991211 130.13305664 C68.02368475 132.56372024 66.60660869 134.25921491 64.79663086 136.23852539 C64.17916992 136.92172852 63.56170898 137.60493164 62.92553711 138.30883789 C61.71716599 139.59813918 60.48362247 140.86403378 59.23413086 142.11352539 C55.3186506 142.11352539 53.25985125 140.42894152 50.35913086 138.05102539 C47.61711775 135.9331272 46.33692436 135.13446481 42.85913086 134.42602539 C38.65827242 135.22273992 35.53423805 136.782771 31.80444336 138.82446289 C29.28949186 140.08576075 26.94455555 140.82766446 24.23413086 141.55102539 C20.7966114 142.62831388 20.7966114 142.62831388 18.73413086 145.61352539 C18.04409966 150.44374377 17.59029154 155.24599605 17.23413086 160.11352539 C10.96413086 160.11352539 4.69413086 160.11352539 -1.76586914 160.11352539 C-3.14086914 152.23852539 -3.14086914 152.23852539 -3.56030273 149.76245117 C-4.25748384 145.50271812 -4.25748384 145.50271812 -6.76586914 142.11352539 C-8.24847166 141.62027494 -9.75287978 141.19124258 -11.26586914 140.80102539 C-16.06423666 139.46081565 -20.13246721 137.48282105 -24.44165039 135.00415039 C-27.40492225 133.86864454 -28.78229464 134.0753537 -31.76586914 135.11352539 C-34.17994265 136.8477502 -36.34848896 138.75616946 -38.58227539 140.71508789 C-40.76586914 142.11352539 -40.76586914 142.11352539 -42.71118164 142.12524414 C-45.69082631 140.6580807 -47.72142114 138.63068601 -50.07836914 136.30102539 C-50.98200195 135.42833008 -51.88563477 134.55563477 -52.81665039 133.65649414 C-54.76586914 131.11352539 -54.76586914 131.11352539 -54.78540039 129.09790039 C-53.00623259 125.63499908 -50.55507703 122.70565485 -48.16430664 119.64868164 C-46.5242276 117.21614289 -46.5242276 117.21614289 -46.94165039 114.52368164 C-47.68029465 112.36375981 -48.4763423 110.48183291 -49.57836914 108.48852539 C-51.80199589 104.29722893 -53.18455771 99.97111427 -54.54321289 95.43383789 C-55.58330819 92.9494355 -55.58330819 92.9494355 -58.00024414 91.86352539 C-61.01790649 91.04517628 -63.98788419 90.46398461 -67.07836914 89.98852539 C-68.95524414 89.69977539 -70.83211914 89.41102539 -72.76586914 89.11352539 C-72.76586914 83.17352539 -72.76586914 77.23352539 -72.76586914 71.11352539 C-64.89086914 69.73852539 -64.89086914 69.73852539 -62.41479492 69.3190918 C-58.15506187 68.62191069 -58.15506187 68.62191069 -54.76586914 66.11352539 C-54.08521918 64.06871565 -53.46902839 62.00214271 -52.89086914 59.92602539 C-51.7460388 56.00768156 -50.65899907 52.55552919 -48.45336914 49.11352539 C-46.52908108 46.33597939 -46.52908108 46.33597939 -46.93383789 43.71118164 C-48.18269872 39.81215604 -50.70292544 37.33549875 -53.36743164 34.29711914 C-54.76586914 32.11352539 -54.76586914 32.11352539 -54.77758789 30.16821289 C-53.31042445 27.18856823 -51.28302976 25.15797339 -48.95336914 22.80102539 C-48.08067383 21.89739258 -47.20797852 20.99375977 -46.30883789 20.06274414 C-43.76586914 18.11352539 -43.76586914 18.11352539 -41.71508789 18.09399414 C-39.2933284 19.36068598 -37.44128549 20.93272011 -35.39086914 22.73852539 C-32.00534578 25.50430518 -32.00534578 25.50430518 -27.82836914 26.36352539 C-24.22880152 24.89431412 -20.80646337 23.19023943 -17.37133789 21.37133789 C-14.1937361 19.83732323 -10.99970845 18.91317208 -7.57836914 18.08227539 C-5.55564889 17.21463969 -5.55564889 17.21463969 -4.55102539 14.87915039 C-3.73005059 11.98735855 -3.39372683 9.3606464 -3.20336914 6.36352539 C-2.79829198 0.17989849 -2.79829198 0.17989849 0 0 Z M-33.17993164 47.05883789 C-41.76756335 59.40924816 -45.93264157 70.94548384 -44.76586914 86.11352539 C-41.6659618 102.32161236 -34.30156617 114.31982225 -21.10571289 123.99243164 C-9.62098378 131.28624206 3.43313136 133.98803349 16.80834961 131.42993164 C32.39961161 127.29627472 43.65784163 119.8709543 52.23413086 106.11352539 C54.19122095 102.19934522 55.79329419 98.24353495 57.23413086 94.11352539 C57.4803418 93.42774414 57.72655273 92.74196289 57.98022461 92.03540039 C61.30669804 81.11539105 59.36530007 69.50769166 55.23413086 59.11352539 C53.16203926 55.23376223 50.85246755 51.64483475 48.23413086 48.11352539 C47.61022461 47.27047852 46.98631836 46.42743164 46.34350586 45.55883789 C37.22350931 34.98639745 23.72153907 29.18683597 10.06616211 27.78930664 C-6.52677177 27.20319814 -22.57737923 34.1230377 -33.17993164 47.05883789 Z " fill="#8F62F0" transform="translate(248.765869140625,175.886474609375)"/>
<path d="M0 0 C10.1182806 9.20910177 16.96604439 22.0420373 18.11328125 35.71484375 C18.46043295 50.20385955 13.80212991 62.23832499 5.6875 74.0625 C-1.80823535 81.55823535 -10.15818183 86.39787558 -20.125 89.875 C-20.81078125 90.12121094 -21.4965625 90.36742187 -22.203125 90.62109375 C-33.12313434 93.94756718 -44.73083373 92.00616921 -55.125 87.875 C-69.75024348 80.06399635 -78.65999448 69.53987411 -84.125 53.875 C-84.37121094 53.18921875 -84.61742187 52.5034375 -84.87109375 51.796875 C-88.49170035 39.91129748 -86.19161992 26.56495899 -80.4765625 15.7578125 C-78.79101244 13.04179515 -77.0166686 10.45061285 -75.125 7.875 C-74.3825 6.823125 -73.64 5.77125 -72.875 4.6875 C-51.87390016 -16.79089756 -23.8790198 -16.23773347 0 0 Z M-68.56640625 9.94921875 C-76.15739704 19.32856326 -79.84798391 30.20976808 -79.4140625 42.33984375 C-77.75449455 56.89470324 -71.96748523 67.70976917 -60.55078125 76.9609375 C-50.38669842 83.99418605 -38.27093941 86.51627391 -26.12109375 84.3359375 C-13.18979985 81.3903862 -3.46806686 75.39907861 4.3125 64.375 C11.09239307 53.40076631 12.22881508 40.91932392 9.8125 28.4375 C6.94561603 17.01034275 -0.26719425 7.63923434 -10 1.125 C-29.1728661 -10.17064204 -53.53527931 -6.3074677 -68.56640625 9.94921875 Z " fill="#F9F7FD" transform="translate(290.125,216.125)"/>
<path d="M0 0 C4.11391277 0.85706516 5.34191934 2.37992762 8 5.625 C9.23531642 8.56987055 9.95673594 11.58123929 10.67578125 14.6875 C10.89066696 15.55640869 11.10555267 16.42531738 11.32695007 17.32055664 C11.77614265 19.15081737 12.21689319 20.98316834 12.6496582 22.81738281 C13.31132003 25.62000195 13.99797343 28.41554181 14.68945312 31.2109375 C15.12386516 32.99443442 15.55685648 34.77827811 15.98828125 36.5625 C16.29286003 37.81268921 16.29286003 37.81268921 16.60359192 39.08813477 C18.44797286 46.94699884 18.44797286 46.94699884 18 50.625 C17.34 51.285 16.68 51.945 16 52.625 C13.96777344 52.48852539 13.96777344 52.48852539 12 51.625 C11.08691406 49.95092773 11.08691406 49.95092773 10.515625 47.80859375 C10.30292969 47.04482422 10.09023438 46.28105469 9.87109375 45.49414062 C9.66613281 44.69169922 9.46117187 43.88925781 9.25 43.0625 C9.02957031 42.25619141 8.80914062 41.44988281 8.58203125 40.61914062 C8.0393064 38.62521673 7.51764764 36.62558083 7 34.625 C2.05 34.295 -2.9 33.965 -8 33.625 C-8.268125 35.295625 -8.53625 36.96625 -8.8125 38.6875 C-9.68619354 43.42255243 -10.62517376 47.42338434 -13 51.625 C-15.125 52.625 -15.125 52.625 -17 52.625 C-17.33 52.295 -17.66 51.965 -18 51.625 C-17.61158911 42.77099722 -15.48090974 34.33144323 -13.35400391 25.7644043 C-12.74804738 23.30457352 -12.16879809 20.83935321 -11.58984375 18.37304688 C-11.2021416 16.79387204 -10.81287321 15.21508073 -10.421875 13.63671875 C-10.25395447 12.90643967 -10.08603394 12.17616058 -9.9130249 11.42375183 C-8.44259529 5.69386484 -6.08174264 1.26702972 0 0 Z " fill="#FAF9FD" transform="translate(248,229.375)"/>
<path d="M0 0 C3.53571429 0.53571429 3.53571429 0.53571429 5 2 C5.10350194 3.49321297 5.13850739 4.99125657 5.14526367 6.48803711 C5.15164352 7.44250229 5.15802338 8.39696747 5.16459656 9.38035583 C5.16570938 10.41886185 5.1668222 11.45736786 5.16796875 12.52734375 C5.17129715 13.58659561 5.17462555 14.64584747 5.17805481 15.73719788 C5.18312869 17.98259038 5.18546299 20.22799045 5.18530273 22.47338867 C5.18748841 25.91923378 5.20563721 29.36475852 5.22460938 32.81054688 C5.22754329 34.98697807 5.2295281 37.16341079 5.23046875 39.33984375 C5.23765427 40.37632553 5.24483978 41.41280731 5.25224304 42.48069763 C5.24916641 43.43831497 5.24608978 44.39593231 5.24291992 45.38256836 C5.24434494 46.22782578 5.24576996 47.07308319 5.24723816 47.94395447 C5 50 5 50 3 52 C-0.53571429 51.46428571 -0.53571429 51.46428571 -2 50 C-2.10350194 48.50678703 -2.13850739 47.00874343 -2.14526367 45.51196289 C-2.15164352 44.55749771 -2.15802338 43.60303253 -2.16459656 42.61964417 C-2.16570938 41.58113815 -2.1668222 40.54263214 -2.16796875 39.47265625 C-2.17129715 38.41340439 -2.17462555 37.35415253 -2.17805481 36.26280212 C-2.18312869 34.01740962 -2.18546299 31.77200955 -2.18530273 29.52661133 C-2.18748841 26.08076622 -2.20563721 22.63524148 -2.22460938 19.18945312 C-2.22754329 17.01302193 -2.2295281 14.83658921 -2.23046875 12.66015625 C-2.23765427 11.62367447 -2.24483978 10.58719269 -2.25224304 9.51930237 C-2.24916641 8.56168503 -2.24608978 7.60406769 -2.24291992 6.61743164 C-2.24434494 5.77217422 -2.24576996 4.92691681 -2.24723816 4.05604553 C-2 2 -2 2 0 0 Z " fill="#F7F4FD" transform="translate(278,230)"/>
<path d="M0 0 C2.97717008 1.98478006 4.62826444 3.36831119 5.44140625 6.9375 C5.66684799 10.77728188 5.23190202 12.63668683 3.125 15.9375 C0.40493999 18.57755824 -0.50214846 18.94363945 -4.3125 19.375 C-8 19 -8 19 -10.875 16.625 C-13.9265967 12.85538054 -14.47627542 10.85800924 -14 6 C-10.24483925 0.36725887 -6.74599262 -1.10928368 0 0 Z " fill="#6B84EC" transform="translate(168,339)"/>
<path d="M0 0 C3.03978021 0.68164768 4.80055419 2.23591662 6.93359375 4.43359375 C8.69622464 7.95885553 7.99972264 11.7284668 6.93359375 15.43359375 C3.92725429 18.30010347 1.95052418 19.26756429 -2.12890625 19.93359375 C-5.77718475 19.31261018 -7.43632312 17.98853165 -10.06640625 15.43359375 C-11.68229004 12.20182618 -11.64092032 8.92744092 -11.06640625 5.43359375 C-8.02199963 0.86698383 -5.28619941 -0.32976291 0 0 Z " fill="#6A84EC" transform="translate(350.06640625,338.56640625)"/>
<path d="M0 0 C5.57894737 3.15789474 5.57894737 3.15789474 7 6 C7.12243863 10.53022942 6.81830145 13.98332245 3.9375 17.5625 C0.12679863 19.42731131 -2.84058254 19.94760922 -7 19 C-9.97717008 17.01521994 -11.62826444 15.63168881 -12.44140625 12.0625 C-12.66684799 8.22271812 -12.23190202 6.36331317 -10.125 3.0625 C-6.76664891 -0.19707606 -4.63575359 -0.44574554 0 0 Z " fill="#B543F5" transform="translate(351,154)"/>
<path d="M0 0 C4.04374372 0.30443897 6.41414606 0.52340948 9.63671875 3.1171875 C11.50153006 6.92788887 12.02182797 9.89527004 11.07421875 14.0546875 C9.08943869 17.03185758 7.70590756 18.68295194 4.13671875 19.49609375 C0.56946763 19.70553463 -1.62952977 19.19966163 -4.86328125 17.6171875 C-7.3925425 14.47477201 -7.94487233 12.22435539 -8.20703125 8.24609375 C-7.92578125 6.0546875 -7.92578125 6.0546875 -5.55078125 3.0546875 C-4.68453125 2.3946875 -3.81828125 1.7346875 -2.92578125 1.0546875 C-1.92578125 0.0546875 -1.92578125 0.0546875 0 0 Z " fill="#B543F5" transform="translate(161.92578125,153.9453125)"/>
<path d="M0 0 C3.38031589 1.18767855 3.93216817 1.89825225 6 5 C6.48219153 8.04453491 6.46284898 10.95291087 6 14 C4.12379387 16.50160818 2.76108697 17.61945652 0 19 C-4.2535161 19.48153012 -6.3220363 19.44716755 -9.9375 17.0625 C-12.34599732 13.48624641 -12.74203371 11.39468093 -12.48046875 7.16015625 C-10.98248598 0.42532316 -6.15511524 -0.7833783 0 0 Z " fill="#5A91EA" transform="translate(259,377)"/>
<path d="M0 0 C3.4375 1.9375 3.4375 1.9375 6 5 C6.80389864 8.17539964 6.75379649 10.81794306 6 14 C4.00772296 17.05067422 2.66317126 18.59426669 -0.9375 19.47265625 C-4.82131981 19.7595293 -6.67845169 19.20766662 -10 17.0625 C-12.33216044 13.49137933 -12.73957582 11.35488967 -12.48046875 7.16015625 C-11.00945838 0.54658932 -6.10817581 -1.07160979 0 0 Z " fill="#C435F7" transform="translate(259,116)"/>
<path d="M0 0 C3.66262449 0.81465246 5.13193418 2.40542239 7.16015625 5.48046875 C7.67537 9.67578071 7.63625012 12.96180904 5.16015625 16.48046875 C1.15855215 19.14820482 -2.13415523 19.19525688 -6.83984375 18.48046875 C-9.34145193 16.60426262 -10.45930027 15.24155572 -11.83984375 12.48046875 C-12.32137387 8.22695265 -12.2870113 6.15843245 -9.90234375 2.54296875 C-6.32609016 0.13447143 -4.23452468 -0.26156496 0 0 Z " fill="#8F62F0" transform="translate(388.83984375,246.51953125)"/>
<path d="M0 0 C3.66262449 0.81465246 5.13193418 2.40542239 7.16015625 5.48046875 C7.67537 9.67578071 7.63625012 12.96180904 5.16015625 16.48046875 C1.15855215 19.14820482 -2.13415523 19.19525688 -6.83984375 18.48046875 C-9.34145193 16.60426262 -10.45930027 15.24155572 -11.83984375 12.48046875 C-12.32137387 8.22695265 -12.2870113 6.15843245 -9.90234375 2.54296875 C-6.32609016 0.13447143 -4.23452468 -0.26156496 0 0 Z " fill="#8F62F0" transform="translate(127.83984375,246.51953125)"/>
<path d="M0 0 C0.66 0 1.32 0 2 0 C2.83752161 2.95716407 3.66930031 5.915913 4.5 8.875 C4.73847656 9.71675781 4.97695312 10.55851563 5.22265625 11.42578125 C5.44824219 12.23144531 5.67382812 13.03710938 5.90625 13.8671875 C6.11572266 14.61081543 6.32519531 15.35444336 6.54101562 16.12060547 C7 18 7 18 7 20 C3.04 20 -0.92 20 -5 20 C-3.85816203 13.06113851 -2.44252578 6.5948196 0 0 Z " fill="#9667F1" transform="translate(247,237)"/>
</svg>
